<svg xmlns="http://www.w3.org/2000/svg" viewBox="0 0 3853.91 630.48"><defs><style>.cls-1,.cls-2{fill:none;stroke:#444;stroke-linecap:square;stroke-width:5px;}.cls-1{stroke-miterlimit:10;}.cls-2{stroke-linejoin:round;}</style></defs><title>grey-outlines</title><g id="Layer_2" data-name="Layer 2"><g id="Layer_1-2" data-name="Layer 1"><path class="cls-1" d="M3758.84,628V440.58q0-5.53.32-12.12t1-13.39l-92.91,174.34a24.48,24.48,0,0,1-8.29,9.25A21.44,21.44,0,0,1,3647,602h-7.87a21.43,21.43,0,0,1-11.91-3.3,24.48,24.48,0,0,1-8.29-9.25l-94.19-175q.85,7,1.17,13.71t.32,12.44V628Z"/><path class="cls-1" d="M2546.77,628h110.13l-.21-.3-64.63-98.44a22.75,22.75,0,0,0-8-7.87q-4.36-2.34-12.86-2.34h-24.45Z"/><path class="cls-1" d="M2039.7,506.39q-5.32-2.44-15.1-2.44h-18.07V628h129.75l-.06-.09-87-113.53A25.82,25.82,0,0,0,2039.7,506.39Z"/><path class="cls-1" d="M2610.65,474a54.43,54.43,0,0,0,19.77-11.16A44.82,44.82,0,0,0,2642,445.9a58.43,58.43,0,0,0,3.83-21.47q0-23.39-15.41-35.93T2583.33,376h-36.57V478h35.72Q2598.64,478,2610.65,474Z"/><path class="cls-1" d="M3315.66,586.22a83.42,83.42,0,0,0,30.51-21.37q12.54-13.92,19.24-34t6.7-45.39q0-25.3-6.7-45.39t-19.24-34.12a82.9,82.9,0,0,0-30.51-21.47q-18-7.44-40.5-7.44t-40.61,7.44a83.63,83.63,0,0,0-30.72,21.47q-12.65,14-19.45,34.12t-6.8,45.39q0,25.3,6.8,45.39t19.45,34a84.16,84.16,0,0,0,30.72,21.37q18.07,7.44,40.61,7.44T3315.66,586.22Z"/><path class="cls-2" d="M227.44,331.73v45.5H91.16v91h115v45.71h-115V628H215.68L332,331.73h58.47L506.88,628h49.46a139.66,139.66,0,0,1-16.47-9.23,120.13,120.13,0,0,1-20.3-16.58l16.58-27.43a21.15,21.15,0,0,1,5.63-5,13.76,13.76,0,0,1,7.33-2q5.31,0,11.48,4.36t14.56,9.67a111.46,111.46,0,0,0,19.77,9.67q11.37,4.36,27.32,4.36,24.45,0,37.84-11.59t13.39-33.27q0-12.12-6.06-19.77a49,49,0,0,0-16.05-12.86,120.11,120.11,0,0,0-22.75-8.82q-12.76-3.61-25.94-7.87a223.11,223.11,0,0,1-25.94-10.21A84,84,0,0,1,554,475.88,70.59,70.59,0,0,1,538,452q-6.06-14.35-6.06-35.4a84.61,84.61,0,0,1,26.26-61,96.6,96.6,0,0,1,31.57-19.77q18.71-7.44,42.73-7.44,27.21,0,50.18,8.5t39.12,23.81l-14,27a15.8,15.8,0,0,1-5.42,6.59,13.64,13.64,0,0,1-7.33,1.91q-4.26,0-9.57-3.3t-12.54-7.33a102.84,102.84,0,0,0-16.9-7.33,71.07,71.07,0,0,0-22.86-3.3,67.17,67.17,0,0,0-20.73,2.87,43.88,43.88,0,0,0-14.88,8,31.86,31.86,0,0,0-9,12.23,40.1,40.1,0,0,0-3,15.63q0,10.84,6.06,18.07A50.56,50.56,0,0,0,607.58,444a148.72,148.72,0,0,0,22.75,9.14q12.76,4,26,8.61a251.55,251.55,0,0,1,26,10.63,90.3,90.3,0,0,1,22.75,15.31,69.39,69.39,0,0,1,16.05,22.64q6.06,13.39,6.06,32.53a106,106,0,0,1-7.12,39,90,90,0,0,1-20.84,31.68A92.77,92.77,0,0,1,680.14,628H838V378.71H745.14v-47H987.73v47H895.24V628h245.13V331.73h100.14q30.83,0,53.36,7.23t37.21,20.2a79.14,79.14,0,0,1,21.69,31,115.62,115.62,0,0,1-.43,80.47,85,85,0,0,1-22.32,32q-14.88,13.39-37.21,20.84t-52.3,7.44h-42.95v97h148.33l116.37-296.25h58.47L1637.1,628h87.67a134.28,134.28,0,0,1-40.34-29.64q-19.35-20.83-29.66-49.75t-10.31-63.14q0-34.65,11.48-63.46a143.32,143.32,0,0,1,82.17-82.07q29-11.59,64.1-11.59,34.23,0,59.85,10.95a140,140,0,0,1,43.9,29l-19.13,26.58a17.4,17.4,0,0,1-4.36,4.46,12.36,12.36,0,0,1-7.33,1.91q-4.89,0-10-3.83a123.9,123.9,0,0,0-13-8.29,105.82,105.82,0,0,0-19.88-8.29q-12-3.83-30.51-3.83a103,103,0,0,0-39.86,7.55,88.61,88.61,0,0,0-31.25,21.58,99.28,99.28,0,0,0-20.41,34.12q-7.34,20.09-7.34,45.18,0,25.94,7.34,46.14t19.88,34a84.82,84.82,0,0,0,29.55,21.15,91.34,91.34,0,0,0,36.57,7.34,159.3,159.3,0,0,0,21.15-1.28,89.76,89.76,0,0,0,17.43-4,77.28,77.28,0,0,0,15.1-7.12,94.22,94.22,0,0,0,14.14-10.74,20.1,20.1,0,0,1,4.46-3.08,11.27,11.27,0,0,1,5.1-1.17,10.74,10.74,0,0,1,8.08,3.61l22.54,24.45A123.46,123.46,0,0,1,1862.95,628h86.39V331.51h57.19V460.57h13.39a34.79,34.79,0,0,0,13.39-2.23,22.66,22.66,0,0,0,9.14-7.12l84.83-107.37q5.31-6.8,11.16-9.46t14.78-2.66h49.33L2099,459.5a93.53,93.53,0,0,1-9.35,10,42.66,42.66,0,0,1-9.57,6.59,42.31,42.31,0,0,1,12.65,7.23,67,67,0,0,1,10.95,11.91L2202.13,628h42.09V331.73h193.9v45.5H2301.84v85.26h107.37v44H2301.84v87h136.28V628h51.45V331.73h93.76q31.46,0,53.9,6.48T2674,356.39a70.18,70.18,0,0,1,21,28,97.93,97.93,0,0,1,2.13,65.16A84.93,84.93,0,0,1,2684,474.6a88.79,88.79,0,0,1-21.26,19.77A111.48,111.48,0,0,1,2633.93,508a56.69,56.69,0,0,1,18.71,17.65L2722,628h33.76a31.42,31.42,0,0,1-2.69-5.09,33.67,33.67,0,0,1,0-25.19,30,30,0,0,1,6.8-10.21,33.47,33.47,0,0,1,10.31-6.8,32,32,0,0,1,12.76-2.55,31.53,31.53,0,0,1,12.54,2.55,31.27,31.27,0,0,1,17,17,32.37,32.37,0,0,1,0,25.19,34.26,34.26,0,0,1-2.76,5.09h103.48a134.28,134.28,0,0,1-40.34-29.64q-19.35-20.83-29.66-49.75t-10.31-63.14q0-34.65,11.48-63.46a143.32,143.32,0,0,1,82.17-82.07q29-11.59,64.1-11.59,34.23,0,59.85,10.95a140,140,0,0,1,43.9,29l-19.13,26.58a17.4,17.4,0,0,1-4.36,4.46,12.36,12.36,0,0,1-7.33,1.91q-4.89,0-10-3.83a123.93,123.93,0,0,0-13-8.29,105.8,105.8,0,0,0-19.88-8.29q-12-3.83-30.51-3.83a103,103,0,0,0-39.86,7.55,88.61,88.61,0,0,0-31.25,21.58,99.28,99.28,0,0,0-20.41,34.12q-7.34,20.09-7.34,45.18,0,25.94,7.34,46.14t19.88,34a84.82,84.82,0,0,0,29.55,21.15,91.33,91.33,0,0,0,36.57,7.34,159.3,159.3,0,0,0,21.15-1.28,89.77,89.77,0,0,0,17.43-4,77.27,77.27,0,0,0,15.1-7.12,94.22,94.22,0,0,0,14.14-10.74,20.09,20.09,0,0,1,4.46-3.08,11.27,11.27,0,0,1,5.1-1.17,10.74,10.74,0,0,1,8.08,3.61l22.54,24.45A123.45,123.45,0,0,1,3051.42,628H3205.1a142.68,142.68,0,0,1-42.95-30.07,147.43,147.43,0,0,1-31.78-49.86q-11.27-28.81-11.27-62.61t11.27-62.61A147.46,147.46,0,0,1,3162.16,373a144.31,144.31,0,0,1,49.33-32.85q28.81-11.8,63.68-11.8t63.57,11.91a145.56,145.56,0,0,1,49.11,32.85,147.22,147.22,0,0,1,31.68,49.75q11.27,28.81,11.27,62.61t-11.27,62.61a148.35,148.35,0,0,1-31.68,49.86A141.85,141.85,0,0,1,3345.08,628h130.78V331.73H3519q3.83,0,6.59.21a18,18,0,0,1,5,1.06,11.83,11.83,0,0,1,4.15,2.76,21.52,21.52,0,0,1,3.61,5.1l91.85,170.72q3.61,6.81,6.7,14.14t6.06,14.78q3-7.65,6.17-15.1t6.8-14.24l91-170.3a23.52,23.52,0,0,1,3.51-5.1,12.08,12.08,0,0,1,1.19-1.09q-14.48-12-29-23.9c-42.31-34.8-85-69.2-129.67-101-31.38-22.34-64-48.11-98.93-65.25-36.26-17.8-76.68-30.59-114.33-45.71-12-4.81-32.65-18.21-45.9-18.44-15.5-.26-41.25,15.31-56.74,20a751.65,751.65,0,0,1-73.57,18.07c-36.6,7-81.15,3.69-115.67,15-29.61,9.68-58.41,29.2-86.16,43.07l-72.59,43-65.84,35.06-120.65,94.86L2859.08,236l61.87-30.92,69.15-45.92Q2824,81.85,2659,2.5c-38.7,20-75.68,46.05-120.36,52.49L2425.6,71.28c-27.53,4-60.38,4.07-86.84,12.4L2301.7,95.34c-6.18,4.17-12.24,9.17-18.84,12.7-14.36,7.68-15.82,5-31-3.55l-83.72-46.83c-4.6-2.58-9.47-5.23-14.82-5.37-4.3-.12-8.44,1.41-12.44,2.91L1993.3,110.66c-35,13.14-73.28,32.34-110.56,38.11l-67.43,10.43a994.6,994.6,0,0,1-120.07,54.67c39.09,27.57,75.92,50.74,119.69,70.46l76,34.22-135.1-49.05L1669.21,214c-30.74-18-64.19-34-92.91-54.64-31.55-22.66-58.38-52.62-96.17-66.43-32.41-11.84-58.48-25.11-88-42.55-15.91,3.93-34.68,6.1-49.18,13.41a87.16,87.16,0,0,0-12.22,8c-24,17.68-44.45,33.95-73.5,43.24-25.43,8.13-52,12.64-78,18.49-24.22,5.44-49.37,10.07-71.55,21.2s-23.9,18.29-45,2.19a543,543,0,0,0-80-50.46,17.65,17.65,0,0,0-5.55-2.1c-2.64-.37-5.28.43-7.82,1.21C900.21,126.9,830,144,757.9,153.41c-17.66,2.32-33.52,5.33-49.07,13.78-9.57,5.2-18.72,14.81-29.27,18.05-31.73,9.76-63.07,18.81-92.37,34.3-7,3.7-33.86,27.9-48.43,25.83,0,0,86,45.19,86,45.19L698.4,319.3l-75.51-19.44c-46.53-22.75-91.94-40.47-127-78.26-8.57-9.25-98.36-99.37-106.44-93.48L314,183.21c-49.76,16.07-102.36,29-149.31,51.53-10,4.79-20,10.25-26.7,18.73-12.5,15.92-14.9,35.53-28.95,51.11-8.74,9.69-18.56,18.37-28.27,27.15Zm858.72,157.12v43.8H976v-43.8Z"/><path class="cls-1" d="M1404.86,626.19a16.22,16.22,0,0,1-.76,1.79h174.83c-.29-.58-.56-1.17-.79-1.79l-23-62.72H1427.82Z"/><path class="cls-1" d="M1497.45,404.76q-3.08-9.25-6.06-20.09-3,10.84-5.85,20.2t-5.63,16.37l-37.42,101.84h98l-37.42-102.26Q1500.53,414,1497.45,404.76Z"/><path class="cls-1" d="M33.54,380.23l-31,33.49,0,184.19A30.08,30.08,0,0,0,32.61,628h.94Z"/><path class="cls-1" d="M3848.07,412.54c-6.71-8.85-20.55-16-29.3-23q-4.78-3.83-9.54-7.68V628h10.3a30.68,30.68,0,0,0,30.68-30.68V453.06C3850.21,443.06,3854,420.38,3848.07,412.54Z"/><path class="cls-1" d="M367.23,404.76q-3.08-9.25-6.06-20.09-3,10.84-5.85,20.2t-5.63,16.37L312.27,523.08h98L372.87,420.81Q370.32,414,367.23,404.76Z"/><path class="cls-1" d="M1267.94,482.36a51,51,0,0,0,19.35-11.27,46.2,46.2,0,0,0,11.48-17.86,68.35,68.35,0,0,0,3.83-23.49,62,62,0,0,0-3.83-22.32,44.14,44.14,0,0,0-11.48-17,51.1,51.1,0,0,0-19.35-10.74q-11.69-3.72-27.43-3.72h-42.95V486.29h42.95Q1256.24,486.29,1267.94,482.36Z"/><path class="cls-1" d="M274.64,626.19a16.22,16.22,0,0,1-.76,1.79H448.71c-.29-.58-.56-1.17-.79-1.79l-23-62.72H297.6Z"/></g></g></svg>