<svg xmlns="http://www.w3.org/2000/svg" xmlns:xlink="http://www.w3.org/1999/xlink" viewBox="0 0 3792.9 579.06"><defs><style>.cls-1{fill:url(#linear-gradient);}.cls-2{fill:url(#linear-gradient-2);}.cls-3{fill:url(#linear-gradient-3);}.cls-4{fill:url(#linear-gradient-4);}.cls-5{fill:url(#linear-gradient-5);}.cls-6{fill:url(#linear-gradient-6);}.cls-7{fill:url(#linear-gradient-7);}.cls-8{fill:url(#linear-gradient-8);}.cls-9{fill:url(#linear-gradient-9);}.cls-10{fill:url(#linear-gradient-10);}.cls-11{fill:url(#linear-gradient-11);}.cls-12{fill:url(#linear-gradient-12);}.cls-13{fill:url(#linear-gradient-13);}.cls-14{fill:url(#linear-gradient-14);}.cls-15{fill:url(#linear-gradient-15);}.cls-16{fill:url(#linear-gradient-16);}</style><linearGradient id="linear-gradient" x1="3618.71" y1="582.98" x2="3596.8" y2="213.5" gradientUnits="userSpaceOnUse"><stop offset="0" stop-color="#17bebb"/><stop offset="1" stop-color="#014e77"/></linearGradient><linearGradient id="linear-gradient-2" x1="2582.04" y1="577.86" x2="2566.82" y2="321.16" xlink:href="#linear-gradient"/><linearGradient id="linear-gradient-3" x1="1525.89" y1="646.98" x2="1446.28" y2="-695.71" xlink:href="#linear-gradient"/><linearGradient id="linear-gradient-4" x1="3616.45" y1="493.06" x2="3607.38" y2="340.15" xlink:href="#linear-gradient"/><linearGradient id="linear-gradient-5" x1="3384.43" y1="579.42" x2="3362.32" y2="206.56" xlink:href="#linear-gradient"/><linearGradient id="linear-gradient-6" x1="3025.08" y1="582.9" x2="2991.62" y2="18.49" xlink:href="#linear-gradient"/><linearGradient id="linear-gradient-7" x1="3255.14" y1="546.97" x2="3230.7" y2="134.74" xlink:href="#linear-gradient"/><linearGradient id="linear-gradient-8" x1="2575.91" y1="422.39" x2="2561.88" y2="185.61" xlink:href="#linear-gradient"/><linearGradient id="linear-gradient-9" x1="28.04" y1="566.14" x2="1.46" y2="117.82" xlink:href="#linear-gradient"/><linearGradient id="linear-gradient-10" x1="362.36" y1="469.89" x2="343.75" y2="156.11" xlink:href="#linear-gradient"/><linearGradient id="linear-gradient-11" x1="3786" y1="576.19" x2="3770.44" y2="313.63" xlink:href="#linear-gradient"/><linearGradient id="linear-gradient-12" x1="362.68" y1="574.48" x2="353.13" y2="413.44" xlink:href="#linear-gradient"/><linearGradient id="linear-gradient-13" x1="1469.55" y1="577.48" x2="1459.64" y2="410.36" xlink:href="#linear-gradient"/><linearGradient id="linear-gradient-14" x1="2053.03" y1="576.72" x2="2036.33" y2="295.03" xlink:href="#linear-gradient"/><linearGradient id="linear-gradient-15" x1="1238.61" y1="432.38" x2="1223.23" y2="173.02" xlink:href="#linear-gradient"/><linearGradient id="linear-gradient-16" x1="1469.22" y1="469.89" x2="1450.62" y2="156.11" xlink:href="#linear-gradient"/></defs><title>Asset 1</title><g id="Layer_2" data-name="Layer 2"><g id="Layer_1-2" data-name="Layer 1"><path class="cls-1" d="M3736.9,442.25,3684.82,435l-51.58,94.45q-5.32,9.61-14.9,9.61h-6q-9.58,0-14.9-9.61l-64.33-115.6-41.25-5.75V578.3l245,.66Z"/><path class="cls-2" d="M2515.9,575.67l132,.36a20.33,20.33,0,0,1-1.19-1.75l-79-109.59a23.11,23.11,0,0,0-7.86-7.38q-4.25-2.25-12.75-2.25H2515.9Z"/><path class="cls-3" d="M229.9,276.06v34H82.9v107h125v34H82.9V569.12l142,.38L341.37,276.06h41.88L500,570.25l49.71.13a124,124,0,0,1-30.57-23.77l11.92-19.74a15.7,15.7,0,0,1,4.15-4,9.66,9.66,0,0,1,5.43-1.61q4.47,0,10.22,4.83a170.41,170.41,0,0,0,14.37,10.62,109.39,109.39,0,0,0,20.87,10.62q12.24,4.83,29.92,4.83a78.07,78.07,0,0,0,26.19-4.08,55.49,55.49,0,0,0,19.48-11.48,49.76,49.76,0,0,0,12.24-17.7,59.57,59.57,0,0,0,4.26-23q0-13.95-6.28-22.85a52.28,52.28,0,0,0-16.5-14.91A115.09,115.09,0,0,0,632.1,448l-26.83-8.58a268.83,268.83,0,0,1-26.83-10.19,87.1,87.1,0,0,1-23.32-15,68.94,68.94,0,0,1-16.5-23.07q-6.28-13.84-6.28-34.22a82.28,82.28,0,0,1,24.49-58.58,88.18,88.18,0,0,1,29.49-18.88q17.57-7.08,40.35-7.08,25.55,0,46.63,8.15a107.35,107.35,0,0,1,36.84,23.6l-10,19.74a16.66,16.66,0,0,1-4,4.83,9,9,0,0,1-5.54,1.61q-3.62,0-8.41-3.65a134.53,134.53,0,0,0-12.14-8,98.42,98.42,0,0,0-17.67-8q-10.33-3.65-25-3.65a73.52,73.52,0,0,0-24.49,3.75A52,52,0,0,0,585,320.89,41.79,41.79,0,0,0,574.29,336a48.29,48.29,0,0,0-3.62,18.77q0,12.87,6.28,21.35a54.14,54.14,0,0,0,16.61,14.48A126.47,126.47,0,0,0,617,401q13.1,4.4,26.83,9.12t26.83,10.62a94.38,94.38,0,0,1,23.42,14.91,68,68,0,0,1,16.61,22.1Q717,470.87,717,490a104.52,104.52,0,0,1-6.81,37.87A86.52,86.52,0,0,1,675,570.72l162.9.44V310.06h-99v-34h239v34h-99V571.27l256,.69V276.06h89.86q28.89,0,50.24,6.74T1310.37,302a77.25,77.25,0,0,1,20.92,30q6.9,17.55,6.9,39.17a100.5,100.5,0,0,1-7.43,39.17A84.28,84.28,0,0,1,1309,440.88q-14.34,12.84-35.58,20t-48.65,7.17H1175.9v104l154.7.42,117.63-296.42h41.88L1608,573.23l97.49.26a130.33,130.33,0,0,1-41.84-30.42q-19-20.7-29.39-49.67t-10.43-63.73q0-34.76,11.18-63.73a145.74,145.74,0,0,1,31.41-49.78,140.49,140.49,0,0,1,48.44-32.29q28.21-11.48,62.29-11.48,33.64,0,58,10.51a146.63,146.63,0,0,1,43.33,28.54l-13.42,19.1a14.64,14.64,0,0,1-3.41,3.54,9.31,9.31,0,0,1-5.54,1.39,10.7,10.7,0,0,1-5.86-2q-3.09-2-7.35-5T1833,322a87.87,87.87,0,0,0-13.63-6.44,112.43,112.43,0,0,0-18.31-5,126.58,126.58,0,0,0-24.06-2q-24.49,0-44.83,8.48a100.4,100.4,0,0,0-35,24.14q-14.69,15.67-22.89,38.19t-8.2,50.42q0,28.75,8.2,51.28T1696.59,519a94.2,94.2,0,0,0,33.54,23.71,106.45,106.45,0,0,0,41.74,8.15,168.3,168.3,0,0,0,24.49-1.61,99.87,99.87,0,0,0,20.12-5,84.67,84.67,0,0,0,17.25-8.69A135,135,0,0,0,1849.8,523q3.62-3.22,7-3.22a8.54,8.54,0,0,1,6.18,2.79l16.18,17.81a130.51,130.51,0,0,1-44.06,33.45l102.77.28V276.06h41v135h15.51q8.07,0,12.85-2a25.09,25.09,0,0,0,9-7l101.33-116.08a32.1,32.1,0,0,1,9-7.63,24.16,24.16,0,0,1,11.15-2.26h35.37L2057.08,408.24a101.38,101.38,0,0,1-8.4,8.35,37.27,37.27,0,0,1-8.4,5.57A29.8,29.8,0,0,1,2050.7,428a86.79,86.79,0,0,1,9.35,9.64l114.27,137.16,49.57.13V276.06h188v34h-147v102h119v33h-119v104h147v26.34l63,.17V276.06h86q28.89,0,49.92,5.89t34.73,17a68.14,68.14,0,0,1,20.29,26.89q6.58,15.75,6.59,35.24a89,89,0,0,1-5.1,30.42,80.52,80.52,0,0,1-14.76,25.39A88.48,88.48,0,0,1,2629,436.09a116,116,0,0,1-31.55,12,43.73,43.73,0,0,1,13.6,13.07l83.77,115,37.5.1a27.71,27.71,0,0,1-3.41-5.94,27.88,27.88,0,0,1,5.54-29.72,26.06,26.06,0,0,1,8.41-5.79,26.44,26.44,0,0,1,20.87,0,27.39,27.39,0,0,1,8.52,5.79,26.18,26.18,0,0,1,5.64,8.58,28.61,28.61,0,0,1,0,21.13,26.68,26.68,0,0,1-3.54,6l120.43.32q-1.76-.7-3.5-1.44a131.07,131.07,0,0,1-45.78-32.19q-19-20.7-29.39-49.67t-10.43-63.73q0-34.76,11.18-63.73a145.74,145.74,0,0,1,31.41-49.78,140.49,140.49,0,0,1,48.44-32.29,156.75,156.75,0,0,1,45.37-10.74l-109.7-47.79a27.23,27.23,0,0,1-4.27-2.33L2653.91,106.33a28.29,28.29,0,0,0-9.6-4.06L2561.93,84A30.16,30.16,0,0,0,2541,86.81l-178.78,98.42c-10.4,5.72-24.07,4.48-32.83-3l-10.8-9.21a29,29,0,0,0-20.67-6.49l-39.51,2.69c-19.9,1.36-40.13,5.29-59.84.85-23.29-5.24-43.82-18.15-65.62-26.56-71.54-27.61-141.16-59.54-211.54-89.28a30.2,30.2,0,0,0-26.32,1.48l-19.38,11.11a30.2,30.2,0,0,1-26.41,1.45,30.35,30.35,0,0,0-24,.24l-26.21,11.83c-10.78,4.87-23.78,13.8-36.18,13.8-6.64,0-13.12-1.62-19.5-3.23q-57.73-14.59-115.48-29.13c-18.78-4.73-43.12-15.89-62.17-7.29-10.51,4.75-17.59,15.07-29.32,16.74-6.19.88-12.43-.9-18.35-2.66q-22.81-6.77-45.62-13.55c-12-3.6-30-12.75-42.54-12.75C1405.38,35,1380,28.6,1356,20.24c-27.86-9.71-56.76-18.66-87.09-20.07-9.89-.46-20-.09-29.41,2.43-9,2.4-17.18,6.67-25.23,10.9L1157.39,43.4c-6.54,3.43-13.22,6.92-20.7,8.42-11.42,2.29-19.64-2.51-29.36-6.66a30.43,30.43,0,0,0-19.39-1.39c-33.85,8.78-67.2,20.69-102.76,23.16-17.76,1.23-44.54-5.45-58.3,6.78q-40.16,35.66-80.23,71.39c-4.27,3.81-8.75,7.75-14.54,9.61s-12.23,1.44-18.37.76C773.32,151,735.2,137.26,698,123c-6.85-2.63-13.92-5.33-21.43-5.47-20.56-.39-44,18.54-60.8,27.65l-36.31,19.69c-16.3,8.84-36.84,14.43-54.47,21.23Q495,197.67,464.83,209q-28.23,10.63-56.56,21.05c-16.92,6.23-31.1,12.41-49.19,4.86-34.82-14.55-69.94-29.25-100.33-49.79-7.48-5.06-30.4-26.09-40.45-17.24l-72.45,63.86-41.4,44.29Zm842,163v32h-105v-32Z"/><path class="cls-4" d="M3611,482.9q2.23,5.68,4.36,11.46,2.12-6,4.46-11.46t5.31-11l22.94-42-71.34-9.94,29,52.16A80.16,80.16,0,0,1,3611,482.9Z"/><path class="cls-5" d="M3455.9,403.08l-60.22-8.39a194.71,194.71,0,0,1,3.06,35q0,34.55-10.86,63.4a145.33,145.33,0,0,1-30.66,49.67A136.94,136.94,0,0,1,3309.62,575q-3.56,1.47-7.21,2.75l153.49.41Z"/><path class="cls-6" d="M3015.55,574.51c-1.93.88-3.91,1.71-5.93,2.5l183.62.49q-3.22-1.16-6.38-2.46a137.16,137.16,0,0,1-47.49-32.29,145.33,145.33,0,0,1-30.66-49.67q-10.86-28.86-10.86-63.4t10.86-63.41a154.59,154.59,0,0,1,14.34-28.84L3055.8,318,3047,330.54a14.64,14.64,0,0,1-3.41,3.54,9.31,9.31,0,0,1-5.54,1.39,10.7,10.7,0,0,1-5.86-2q-3.09-2-7.35-5t-10-6.44a87.87,87.87,0,0,0-13.63-6.44,112.43,112.43,0,0,0-18.31-5,126.58,126.58,0,0,0-24.06-2q-24.49,0-44.83,8.48a100.4,100.4,0,0,0-35,24.14q-14.69,15.67-22.89,38.19t-8.2,50.42q0,28.75,8.2,51.28T2878.41,519A94.2,94.2,0,0,0,2912,542.75a106.45,106.45,0,0,0,41.74,8.15,168.3,168.3,0,0,0,24.49-1.61,99.87,99.87,0,0,0,20.12-5,84.67,84.67,0,0,0,17.25-8.69A135,135,0,0,0,3031.62,523q3.62-3.22,7-3.22a8.54,8.54,0,0,1,6.18,2.79L3061,540.39A130.69,130.69,0,0,1,3015.55,574.51Z"/><path class="cls-7" d="M3140,429.67q0,28.32,7.67,50.75t21.83,38a94,94,0,0,0,34.18,23.82q20,8.26,44.5,8.26,24.7,0,44.72-8.26A93.09,93.09,0,0,0,3327,518.4q14.06-15.56,21.72-38t7.67-50.75a166.23,166.23,0,0,0-4.79-41.13l-98.07-13.67a30.07,30.07,0,0,1-4.21-.9l-86.46-25a112,112,0,0,0-15.16,29.88Q3140,401.35,3140,429.67Z"/><path class="cls-8" d="M2590.91,420.66a64.56,64.56,0,0,0,23-12.44A51.57,51.57,0,0,0,2627.83,389a63.12,63.12,0,0,0,4.68-24.66q0-27.44-18-41.38T2561,309.06H2515.9v116h43.2Q2577.18,425.06,2590.91,420.66Z"/><path class="cls-9" d="M40.9,344.06l-34.63,37C3,382.36,2.33,386,2.14,389-1.79,454.86.9,480.66.9,546.58.9,558.88,12.53,568.88,27,569l13.94,0Z"/><path class="cls-10" d="M362.2,315q-2.35,8.8-4.58,16.2t-4.37,13L305.35,469.06H419.27L371.36,344A234.87,234.87,0,0,1,362.2,315Z"/><path class="cls-11" d="M3772.9,447.35V579.06h0c14.59.1,20-17.17,20-29.61V469.09C3792.9,458.71,3784.55,449.79,3772.9,447.35Z"/><polygon class="cls-12" points="266.82 569.62 458 570.13 430.68 499.06 293.94 499.06 266.82 569.62"/><polygon class="cls-13" points="1372.54 572.6 1566.01 573.12 1537.55 499.06 1400.8 499.06 1372.54 572.6"/><path class="cls-14" d="M2017,447.54a20,20,0,0,0-4.67-3.12,21.59,21.59,0,0,0-6.16-1.83,58.37,58.37,0,0,0-8.6-.54H1978.9V574.23l148,.4-.34-.38-105.16-122.3Q2019,449.37,2017,447.54Z"/><path class="cls-15" d="M1256.33,430.32a64,64,0,0,0,22.75-13.24A55,55,0,0,0,1293,396.74a70,70,0,0,0,4.7-26q0-29.49-18.05-46.06T1225,308.06H1175.9v127H1225Q1242.76,435.06,1256.33,430.32Z"/><path class="cls-16" d="M1469.07,315q-2.35,8.8-4.58,16.2t-4.37,13l-47.91,124.88h113.92L1478.22,344A235,235,0,0,1,1469.07,315Z"/></g></g></svg>