<svg xmlns="http://www.w3.org/2000/svg" viewBox="0 0 3774.06 694.38"><defs><style>.cls-1{fill:#fff;}</style></defs><title>White-outlined-mountains</title><g id="Layer_2" data-name="Layer 2"><g id="Layer_1-2" data-name="Layer 1"><path class="cls-1" d="M193.82,383.68v45.48H57.59v91h115v45.69h-115V691H0V383.68Z"/><path class="cls-1" d="M477.53,691h-44.2q-7.44,0-12.22-3.72A21.1,21.1,0,0,1,414.2,678l-23-62.69H263.95L241,678a20.12,20.12,0,0,1-6.69,8.93,18.81,18.81,0,0,1-12.22,4H177.67l120.71-307.3h58.44Zm-198.92-116h98l-37.4-102.22q-2.55-6.8-5.63-16t-6.06-20.08q-3,10.84-5.84,20.19T316,473.15Z"/><path class="cls-1" d="M673.89,439.58a15.79,15.79,0,0,1-5.42,6.59,13.63,13.63,0,0,1-7.33,1.91q-4.25,0-9.56-3.29T639,437.45a102.84,102.84,0,0,0-16.9-7.33,71.06,71.06,0,0,0-22.85-3.29,67.14,67.14,0,0,0-20.72,2.87,43.85,43.85,0,0,0-14.88,8,31.84,31.84,0,0,0-9,12.22,40.09,40.09,0,0,0-3,15.62q0,10.84,6.06,18.06a50.54,50.54,0,0,0,16,12.33A148.63,148.63,0,0,0,596.53,505q12.75,4,26,8.61a251.33,251.33,0,0,1,26,10.63,90.25,90.25,0,0,1,22.74,15.3,69.36,69.36,0,0,1,16,22.63q6.06,13.39,6.06,32.52a106,106,0,0,1-7.12,39,90,90,0,0,1-20.83,31.67A98,98,0,0,1,632,686.63q-19.76,7.75-45.27,7.76a146,146,0,0,1-28.9-2.87,152,152,0,0,1-27.31-8.18,142.23,142.23,0,0,1-24.44-12.75A120.13,120.13,0,0,1,485.81,654l16.58-27.41a21.16,21.16,0,0,1,5.63-5,13.76,13.76,0,0,1,7.33-2q5.31,0,11.48,4.36t14.56,9.67a111.43,111.43,0,0,0,19.76,9.67q11.37,4.36,27.31,4.36,24.44,0,37.83-11.58t13.39-33.26q0-12.11-6.06-19.76a48.93,48.93,0,0,0-16-12.86,120.07,120.07,0,0,0-22.74-8.82q-12.75-3.61-25.93-7.86A223.08,223.08,0,0,1,543,543.28a83.93,83.93,0,0,1-22.74-15.51,70.57,70.57,0,0,1-16-23.91q-6.06-14.35-6.06-35.38a84.58,84.58,0,0,1,26.25-61,96.55,96.55,0,0,1,31.56-19.76q18.7-7.44,42.72-7.44,27.2,0,50.15,8.5t39.1,23.8Z"/><path class="cls-1" d="M953.78,383.68v47H861.33V691H804.16V430.65H711.29v-47Z"/><path class="cls-1" d="M942.08,540.73h110.08v43.78H942.08Z"/><path class="cls-1" d="M1163.52,582.81V691h-57.17V383.68h100.1q30.81,0,53.34,7.23T1297,411.1a79.09,79.09,0,0,1,21.68,31,115.57,115.57,0,0,1-.43,80.44,84.92,84.92,0,0,1-22.31,32q-14.88,13.39-37.19,20.83t-52.28,7.44Zm0-44.63h42.93q15.72,0,27.41-3.93A50.93,50.93,0,0,0,1253.2,523a46.18,46.18,0,0,0,11.48-17.85,68.32,68.32,0,0,0,3.83-23.48,62,62,0,0,0-3.83-22.31,44.12,44.12,0,0,0-11.48-17,51.09,51.09,0,0,0-19.34-10.73q-11.69-3.72-27.41-3.72h-42.93Z"/><path class="cls-1" d="M1607.26,691h-44.2q-7.44,0-12.22-3.72a21.1,21.1,0,0,1-6.91-9.24l-23-62.69h-127.3l-23,62.69a20.12,20.12,0,0,1-6.69,8.93,18.81,18.81,0,0,1-12.22,4H1307.4l120.71-307.3h58.44Zm-198.92-116h98l-37.4-102.22q-2.55-6.8-5.63-16t-6.06-20.08q-3,10.84-5.84,20.19t-5.63,16.36Z"/><path class="cls-1" d="M1839.32,618.51a10.73,10.73,0,0,1,8.08,3.61l22.53,24.44a123.72,123.72,0,0,1-46,35.49q-27.31,12.33-65.56,12.33-34.22,0-61.52-11.69a135.51,135.51,0,0,1-46.65-32.52q-19.34-20.82-29.65-49.73t-10.31-63.12q0-34.64,11.48-63.44a143.26,143.26,0,0,1,82.14-82q29-11.58,64.07-11.58,34.21,0,59.82,10.94a139.92,139.92,0,0,1,43.88,29L1852.5,446.8a17.4,17.4,0,0,1-4.36,4.46,12.36,12.36,0,0,1-7.33,1.91q-4.89,0-10-3.83a123.82,123.82,0,0,0-13-8.29,105.78,105.78,0,0,0-19.87-8.29q-12-3.83-30.5-3.83a103,103,0,0,0-39.85,7.54,88.58,88.58,0,0,0-31.24,21.57,99.24,99.24,0,0,0-20.4,34.11q-7.33,20.08-7.33,45.16,0,25.93,7.33,46.12t19.87,34a84.8,84.8,0,0,0,29.54,21.15,91.3,91.3,0,0,0,36.55,7.33,159.26,159.26,0,0,0,21.15-1.27,89.7,89.7,0,0,0,17.43-4,77.23,77.23,0,0,0,15.09-7.12,94.21,94.21,0,0,0,14.13-10.73,20.08,20.08,0,0,1,4.46-3.08A11.26,11.26,0,0,1,1839.32,618.51Z"/><path class="cls-1" d="M1972.14,512.47h13.39a34.78,34.78,0,0,0,13.39-2.23,22.65,22.65,0,0,0,9.14-7.12l84.79-107.32q5.31-6.8,11.16-9.46t14.77-2.66h49.3l-103.5,127.72a93.58,93.58,0,0,1-9.35,10,42.65,42.65,0,0,1-9.56,6.59,42.28,42.28,0,0,1,12.64,7.23,67,67,0,0,1,10.94,11.9L2175.95,691h-50.58q-10.2,0-15.19-2.87a23.76,23.76,0,0,1-8.39-8.39l-86.92-113.48a25.81,25.81,0,0,0-9.56-8q-5.31-2.44-15.09-2.44h-18.06V691H1915V383.47h57.17Z"/><path class="cls-1" d="M2403.55,383.68v45.48H2267.33v85.22h107.32v44H2267.33v86.92h136.22V691H2209.73V383.68Z"/><path class="cls-1" d="M2512.14,570.91V691H2455V383.68h93.72q31.45,0,53.87,6.48t36.77,18.17a70.16,70.16,0,0,1,21,27.95,97.89,97.89,0,0,1,2.13,65.14,84.89,84.89,0,0,1-13.18,25.08,88.76,88.76,0,0,1-21.25,19.76,111.41,111.41,0,0,1-28.8,13.6A56.67,56.67,0,0,1,2618,577.5L2694.91,691h-51.43a25.08,25.08,0,0,1-12.65-3,25.79,25.79,0,0,1-8.82-8.5l-64.6-98.4a22.74,22.74,0,0,0-8-7.86q-4.36-2.34-12.86-2.34Zm0-41h35.7q16.15,0,28.16-4a54.41,54.41,0,0,0,19.76-11.16,44.8,44.8,0,0,0,11.58-16.9,58.4,58.4,0,0,0,3.83-21.46q0-23.38-15.41-35.92t-47.07-12.54h-36.55Z"/><path class="cls-1" d="M2715.95,662.08a32.67,32.67,0,0,1,2.44-12.54,30,30,0,0,1,6.8-10.2,33.46,33.46,0,0,1,10.31-6.8,32,32,0,0,1,12.75-2.55,31.51,31.51,0,0,1,12.54,2.55,31.26,31.26,0,0,1,17,17,32.37,32.37,0,0,1,0,25.18,32.47,32.47,0,0,1-6.8,10.09,30.74,30.74,0,0,1-10.2,6.69,32.74,32.74,0,0,1-12.54,2.44,33.26,33.26,0,0,1-12.75-2.44,31.88,31.88,0,0,1-10.31-6.69,30.13,30.13,0,0,1-6.8-10.09A32.4,32.4,0,0,1,2715.95,662.08Z"/><path class="cls-1" d="M3027.29,618.51a10.73,10.73,0,0,1,8.08,3.61l22.53,24.44a123.72,123.72,0,0,1-46,35.49q-27.31,12.33-65.56,12.33-34.22,0-61.52-11.69a135.52,135.52,0,0,1-46.65-32.52q-19.34-20.82-29.65-49.73t-10.31-63.12q0-34.64,11.48-63.44a143.25,143.25,0,0,1,82.14-82q29-11.58,64.07-11.58,34.21,0,59.82,10.94a139.93,139.93,0,0,1,43.88,29l-19.13,26.56a17.41,17.41,0,0,1-4.36,4.46,12.36,12.36,0,0,1-7.33,1.91q-4.89,0-10-3.83a123.83,123.83,0,0,0-13-8.29,105.77,105.77,0,0,0-19.87-8.29q-12-3.83-30.5-3.83a103,103,0,0,0-39.85,7.54,88.58,88.58,0,0,0-31.24,21.57,99.24,99.24,0,0,0-20.4,34.11q-7.33,20.08-7.33,45.16,0,25.93,7.33,46.12t19.87,34a84.8,84.8,0,0,0,29.54,21.15,91.3,91.3,0,0,0,36.55,7.33,159.26,159.26,0,0,0,21.15-1.27,89.71,89.71,0,0,0,17.43-4,77.26,77.26,0,0,0,15.09-7.12,94.28,94.28,0,0,0,14.13-10.73,20.09,20.09,0,0,1,4.46-3.08A11.26,11.26,0,0,1,3027.29,618.51Z"/><path class="cls-1" d="M3395.78,537.33q0,33.79-11.26,62.59a148.29,148.29,0,0,1-31.67,49.83,143.38,143.38,0,0,1-49.09,32.83q-28.69,11.79-63.54,11.79t-63.65-11.79a144.24,144.24,0,0,1-49.3-32.83,147.36,147.36,0,0,1-31.77-49.83q-11.27-28.79-11.26-62.59t11.26-62.59a147.4,147.4,0,0,1,31.77-49.84,144.25,144.25,0,0,1,49.3-32.83q28.79-11.79,63.65-11.79t63.54,11.9A145.49,145.49,0,0,1,3352.86,425a147.18,147.18,0,0,1,31.67,49.73Q3395.78,503.55,3395.78,537.33Zm-58.65,0q0-25.29-6.69-45.37t-19.23-34.11a82.86,82.86,0,0,0-30.5-21.46q-18-7.44-40.48-7.44t-40.59,7.44a83.59,83.59,0,0,0-30.71,21.46q-12.65,14-19.45,34.11t-6.8,45.37q0,25.29,6.8,45.37t19.45,34a84.12,84.12,0,0,0,30.71,21.36q18.06,7.44,40.59,7.44t40.48-7.44a83.38,83.38,0,0,0,30.5-21.36q12.54-13.92,19.23-34T3337.13,537.33Z"/><path class="cls-1" d="M3601.82,577.6q3.08,7.33,6.06,14.77,3-7.65,6.16-15.09t6.8-14.24l91-170.23a23.54,23.54,0,0,1,3.51-5.1,10.84,10.84,0,0,1,4-2.76,17.92,17.92,0,0,1,5-1.06q2.76-.21,6.59-.21h43.14V691H3723.7V492.49q0-5.52.32-12.11t1-13.39L3632.1,641.25a24.47,24.47,0,0,1-8.29,9.24,21.43,21.43,0,0,1-11.9,3.29h-7.86a21.42,21.42,0,0,1-11.9-3.29,24.47,24.47,0,0,1-8.29-9.24l-94.15-174.9q.85,7,1.17,13.71t.32,12.43V691h-50.37V383.68H3484q3.83,0,6.59.21a18,18,0,0,1,5,1.06,11.83,11.83,0,0,1,4.14,2.76,21.5,21.5,0,0,1,3.61,5.1l91.81,170.65Q3598.74,570.28,3601.82,577.6Z"/><path class="cls-1" d="M3724,339.75c-8.16-6.64-16.57-12.95-24.89-19.39s-16.41-13.16-24.6-19.76q-24.49-19.89-49.31-39.35t-50.32-38l-51.24-36.82c-17.11-12.19-34.51-24-52.94-34-9.2-5-18.71-9.46-28.33-13.66s-19.37-8.1-29.17-11.87c-19.61-7.54-39.45-14.53-59.1-22.12l-7.36-2.88c-1.22-.47-2.46-1-3.69-1.51s-2.43-1.09-3.62-1.67c-4.77-2.3-9.43-4.74-14.13-7A136.93,136.93,0,0,0,3311,85.4c-1.21-.44-2.44-.79-3.67-1.17s-2.46-.67-3.7-.83c-.62-.09-1.24-.25-1.85-.28l-1.84-.13c-.62,0-1.24,0-1.86.06a13.23,13.23,0,0,0-1.86.15,68.38,68.38,0,0,0-14.83,4c-4.87,1.82-9.67,3.92-14.46,6.06s-9.57,4.34-14.47,6.39c-2.46,1-4.92,2-7.49,2.84-1.29.44-2.54.81-3.81,1.19l-3.79,1.12Q3207,113.75,3176,120.06c-5.15,1.06-10.37,2.06-15.62,2.82-2.62.38-5.24.76-7.87,1l-3.94.46-3.94.39c-10.51,1-21,1.67-31.5,2.44s-20.92,1.65-31.25,3.13a158.79,158.79,0,0,0-30.28,7.11A228.89,228.89,0,0,0,3023,150c-9.31,4.75-18.45,9.93-27.62,15.07-4.59,2.57-9.18,5.16-13.81,7.68-2.31,1.27-4.65,2.5-7,3.75-1.17.62-2.33,1.2-3.5,1.81s-2.35,1.16-3.47,1.86l-27.09,16.13-27.09,16.13-13.54,8.06-3.39,2c-1.14.65-2.32,1.25-3.47,1.88l-7,3.72-55.68,29.79.38-.25-120.49,95.06a2.81,2.81,0,0,1-3.72-4.21l0,0L2822.92,235a3,3,0,0,1,.74-.53h0l61.83-31-.33.19,69.09-46,.42,5.63Q2788.53,86.17,2623.43,6.81l3.21,0c-13.69,7.11-27.12,14.89-40.82,22.37C2579,32.88,2572.05,36.55,2565,40c-3.51,1.75-7.11,3.35-10.69,5-1.8.8-3.63,1.53-5.45,2.3l-2.73,1.14-2.77,1.05a191.48,191.48,0,0,1-22.63,7.2L2514.9,58c-1,.24-1.94.41-2.93.58l-2.94.51c-4,.73-7.76,1.22-11.61,1.79l-46.15,6.69-46.15,6.69-11.54,1.67c-3.86.56-7.79,1.07-11.68,1.51-7.79.89-15.55,1.56-23.27,2.29-15.42,1.47-30.79,3-45.5,6.7-.92.24-1.84.45-2.75.7l-2.71.79c-1.79.5-3.67,1.12-5.51,1.69L2291,93.1l-22.24,7,1-.48c-4.37,3-8.69,6.34-13.43,9.46-1.18.78-2.4,1.54-3.65,2.27s-2.54,1.42-3.79,2.06a43.2,43.2,0,0,1-8.32,3.43,17.49,17.49,0,0,1-2.49.49c-.44,0-.86.12-1.31.14h-1.35a8,8,0,0,1-1.34-.1c-.44-.06-.89-.11-1.33-.19a21.27,21.27,0,0,1-2.46-.68,50.61,50.61,0,0,1-8-3.9l-7.11-4-7.15-4-57.21-32-14.3-8c-2.37-1.32-4.8-2.71-7.09-3.93a32.92,32.92,0,0,0-6.73-2.84,14.63,14.63,0,0,0-6.48-.34,38.23,38.23,0,0,0-7.11,2.09l-15.32,5.76-61.35,23.07-61.35,23.07c-5.1,1.93-10.25,3.84-15.29,5.79s-10.1,4-15.15,6c-10.09,4.13-20.19,8.35-30.41,12.36s-20.58,7.81-31.17,11.05c-2.64.82-5.33,1.54-8,2.31s-5.38,1.39-8.09,2l-4.08.89c-1.36.3-2.72.6-4.1.82-2.74.48-5.53,1-8.2,1.39l-64.77,10,1.27-.42a994,994,0,0,1-120.56,54.87l.9-7c15.11,10.65,30.39,21,46,30.79s31.63,18.94,48,27.32q12.31,6.26,24.89,12l25.35,11.43,50.7,22.85a3.91,3.91,0,0,1-2.94,7.25l-135.09-49.09a4.1,4.1,0,0,1-.77-.38l-44.8-28.72-22.4-14.36-11.2-7.18-5.6-3.59c-.93-.59-1.86-1.21-2.8-1.78l-2.83-1.64c-30.46-17.67-62.8-33.18-91.9-54.43-14.54-10.62-27.84-22.48-41.64-33.43s-28.11-21.12-44-28.06c-4-1.7-7.93-3.24-12.19-4.82s-8.35-3.22-12.49-4.9q-12.42-5.07-24.53-10.89c-16.14-7.73-31.79-16.38-47.13-25.45l2.71.4c-9.53,2.32-19,3.91-28.18,6.14a119,119,0,0,0-13.4,4c-1.09.39-2.15.82-3.2,1.27s-2.08.93-3.11,1.41a49,49,0,0,0-5.85,3.37c-3.81,2.53-7.66,5.5-11.53,8.32L1282,88.06c-7.83,5.65-15.82,11.21-24.26,16.16-4.19,2.52-8.55,4.78-12.94,7-2.23,1-4.43,2.12-6.71,3-1.13.48-2.26,1-3.4,1.43l-3.45,1.32c-2.29.91-4.64,1.62-7,2.43s-4.64,1.46-7,2.12c-4.66,1.38-9.35,2.62-14,3.81-18.79,4.73-37.73,8.22-56.41,12.39s-37.63,7.8-55.42,14.17q-6.66,2.38-13,5.34c-4.25,2-8.39,4.22-12.56,6.54-2.08,1.16-4.2,2.36-6.43,3.52-.54.29-1.15.56-1.73.84s-1.14.57-1.79.8l-1.89.73c-.67.2-1.37.38-2,.56a18.53,18.53,0,0,1-8.71-.11,31.54,31.54,0,0,1-7.4-3.2l-1.67-1c-.55-.32-1.05-.69-1.58-1-1-.7-2.11-1.38-3.08-2.12l-3-2.2-2.86-2.16c-3.81-2.88-7.67-5.69-11.56-8.47q-11.68-8.29-23.79-16T963.7,119.29q-6.25-3.51-12.58-6.86l-3.17-1.67c-1.07-.56-2.1-1.1-3-1.5a8.69,8.69,0,0,0-2.54-.73,9.24,9.24,0,0,0-2.67.16,30.17,30.17,0,0,0-3.15.82l-3.45,1-6.91,2.1c-4.6,1.41-9.23,2.74-13.85,4.11l-13.88,4-13.92,3.86q-27.88,7.58-56.07,14T771.82,150l-7.12,1.25-7.13,1.16c-4.75.8-9.52,1.52-14.28,2.22-9.51,1.48-19.16,2.58-28.52,4a136.8,136.8,0,0,0-27.35,6.87,93.44,93.44,0,0,0-12.62,5.93c-3.93,2.31-7.7,5.2-11.62,8a75.25,75.25,0,0,1-12.72,7.85l-1.79.75c-.6.24-1.23.44-1.85.65-1.22.41-2.32.72-3.48,1.08l-6.9,2.1c-9.19,2.8-18.36,5.6-27.46,8.6s-18.11,6.17-27,9.69-17.56,7.43-26,11.79l-1.59.81-.66.37-.69.43c-.94.61-1.9,1.29-2.86,2l-5.79,4.24c-3.88,2.85-7.83,5.69-11.91,8.36a101,101,0,0,1-12.84,7.3,44.39,44.39,0,0,1-7.15,2.64,21.24,21.24,0,0,1-8.11.7l-.81-.1a2.54,2.54,0,0,1,.64-5,2.59,2.59,0,0,1,.86.27l86.74,45.61-.23-.11,73.57,28.87h0a2.13,2.13,0,0,1-1.31,4l-75.47-19.59h0a2.06,2.06,0,0,1-.37-.14c-14.42-7.08-29-13.85-43.5-21-3.6-1.82-7.23-3.58-10.8-5.47l-5.37-2.8-5.32-2.9c-3.57-1.89-7-4-10.55-6l-5.18-3.17c-1.73-1.05-3.45-2.11-5.13-3.25l-5.07-3.35c-1.68-1.14-3.31-2.34-5-3.51-3.34-2.29-6.49-4.87-9.7-7.33-1.6-1.24-3.11-2.61-4.67-3.9s-3.13-2.58-4.59-4c-3-2.77-6-5.49-8.75-8.46-11.11-11.66-22.49-23-34-34.26s-23.12-22.37-35-33.2c-5.94-5.41-11.95-10.75-18.1-15.89-3.08-2.57-6.2-5.08-9.39-7.47-1.6-1.19-3.22-2.35-4.87-3.42a29.34,29.34,0,0,0-5-2.76,6.38,6.38,0,0,0-1.2-.34,1.3,1.3,0,0,0-.61,0l-2.36,1.7-4.89,3.54-9.77,7.09-19.55,14.17-39.1,28.35h0a1,1,0,0,1-.28.14c-24.63,7.87-49.5,14.85-74.13,22.6s-49,16.26-72.43,27.15a136.8,136.8,0,0,0-17.06,9,48.41,48.41,0,0,0-14,13,97.15,97.15,0,0,0-9.38,16.83c-2.69,5.86-5.16,11.85-8.22,17.55a83.19,83.19,0,0,1-5,8.31,68.36,68.36,0,0,1-6.16,7.5c-4.48,4.66-9.24,9-14,13.41-9.54,8.71-19.28,17.19-28.92,25.78,9.58-8.66,19.27-17.2,28.74-26,4.72-4.4,9.45-8.81,13.88-13.49a67.92,67.92,0,0,0,6.07-7.49,82.64,82.64,0,0,0,4.94-8.29c3-5.7,5.43-11.69,8.09-17.58a97.86,97.86,0,0,1,9.34-17,49.31,49.31,0,0,1,14.12-13.31A137.73,137.73,0,0,1,133.23,234c23.38-11.1,47.82-19.75,72.41-27.65s49.44-15,74-23l-.28.14,38.93-28.58,19.47-14.29,9.73-7.14,4.87-3.57,1.22-.89.61-.45.3-.22a4.19,4.19,0,0,1,.4-.27,3.42,3.42,0,0,1,2.32-.35,8.82,8.82,0,0,1,1.71.47,31.53,31.53,0,0,1,5.55,3c1.72,1.11,3.39,2.29,5,3.49,3.27,2.41,6.42,4.94,9.54,7.51,6.23,5.15,12.28,10.48,18.27,15.88,12,10.81,23.66,21.9,35.23,33.1s23,22.55,34.2,34.15c2.73,2.91,5.72,5.56,8.64,8.28,1.43,1.39,3,2.61,4.53,3.91s3,2.6,4.61,3.82c3.18,2.41,6.28,4.93,9.59,7.18,1.64,1.14,3.25,2.32,4.91,3.44l5,3.28c27,17.3,56.71,29.85,85.69,44l-.37-.14,75.55,19.29-1.3,4-73.67-28.59-.22-.1h0l-85.31-44.77.69-4.86a16.53,16.53,0,0,0,6.15-.61,39.52,39.52,0,0,0,6.34-2.38,96.24,96.24,0,0,0,12.17-7c4-2.61,7.81-5.4,11.65-8.25l5.82-4.29c1-.71,2-1.43,3.06-2.13l.83-.52.91-.52,1.62-.83C562.22,213,571.07,209,580,205.4s18.09-6.85,27.24-9.91,18.35-5.91,27.54-8.74l6.89-2.12c1.13-.35,2.34-.7,3.4-1.06.51-.19,1-.35,1.54-.55l1.53-.65A70.25,70.25,0,0,0,659.92,175c3.85-2.8,7.7-5.8,12.06-8.38a98.71,98.71,0,0,1,13.43-6.36,142.37,142.37,0,0,1,28.45-7.25c9.63-1.51,19.08-2.61,28.57-4.11,4.74-.71,9.48-1.44,14.2-2.25l7.09-1.18,7.08-1.26q28.31-5.06,56.35-11.52t55.78-14.07l13.85-3.88,13.82-4c4.59-1.38,9.2-2.71,13.78-4.13l6.88-2.11,3.45-1.06a36,36,0,0,1,3.82-1,15.52,15.52,0,0,1,4.5-.24,15,15,0,0,1,4.37,1.2c1.29.55,2.39,1.14,3.44,1.69l3.21,1.68q6.42,3.37,12.75,6.9,12.65,7.08,24.94,14.8t24.12,16.11c3.94,2.8,7.86,5.63,11.72,8.54l2.9,2.18,2.83,2.07c.94.72,1.9,1.31,2.86,2s1.92,1.22,2.89,1.78a25.22,25.22,0,0,0,5.78,2.53,11.76,11.76,0,0,0,5.55,0c3.78-.91,7.92-3.49,12.11-5.8s8.51-4.73,13-6.8,9-3.94,13.62-5.6c18.46-6.63,37.54-10.26,56.21-14.49,18.84-4.22,37.71-7.74,56.21-12.43,4.62-1.18,9.22-2.4,13.78-3.76,2.29-.65,4.54-1.39,6.81-2.09s4.46-1.46,6.64-2.33l3.29-1.26c1.09-.44,2.16-.92,3.24-1.37,2.17-.88,4.28-1.94,6.41-2.92,4.21-2.1,8.38-4.28,12.43-6.72,8.14-4.79,15.94-10.23,23.68-15.84l11.58-8.53c3.89-2.84,7.64-5.76,11.84-8.56a56.21,56.21,0,0,1,6.63-3.83c1.15-.54,2.28-1.11,3.45-1.58s2.32-1,3.5-1.4a126,126,0,0,1,14.2-4.28c9.5-2.32,19-3.93,28.15-6.18a3.64,3.64,0,0,1,2.71.4c15.24,9,30.7,17.49,46.61,25.07q11.92,5.69,24.16,10.68,6.12,2.48,12.3,4.81c4.07,1.5,8.39,3.16,12.58,4.95a161.31,161.31,0,0,1,23.85,13.08c7.57,4.94,14.77,10.34,21.78,15.89,14,11.1,27.29,22.87,41.46,33.18s29.32,19.34,44.73,28,31.09,17,46.61,25.93l2.93,1.7c1,.58,1.88,1.19,2.82,1.79l5.61,3.59,11.22,7.19L1679,238.58l44.88,28.74-.77-.38,135.11,49-2.94,7.25-50.71-22.82L1779.18,289q-12.75-5.77-25.24-12.11-24.93-12.74-48.63-27.64c-15.81-9.86-31.22-20.32-46.42-31a4,4,0,0,1,.9-7,995.93,995.93,0,0,0,119.59-54.47,4.08,4.08,0,0,1,1.27-.42l64.78-10c21.26-3,41.72-10.12,62-18,10.12-4,20.18-8.16,30.31-12.3,5.07-2.06,10.16-4.12,15.29-6.1s10.25-3.88,15.36-5.81l61.36-23,61.36-23,15.35-5.76A45.44,45.44,0,0,1,2115,49.8a22.58,22.58,0,0,1,9.75.52,40.4,40.4,0,0,1,8.35,3.48c2.53,1.36,4.84,2.69,7.24,4l14.3,8,57.2,32,7.15,4,7.14,4.06a44.58,44.58,0,0,0,6.68,3.31,9.07,9.07,0,0,0,5.83.18,36.36,36.36,0,0,0,6.78-2.84c1.18-.61,2.31-1.19,3.41-1.85s2.21-1.33,3.31-2.06c4.39-2.88,8.68-6.24,13.36-9.4a4,4,0,0,1,1-.48l22.24-7,11.12-3.5c1.86-.58,3.68-1.18,5.63-1.73l2.88-.84c1-.27,1.93-.49,2.9-.74,15.49-3.85,31.17-5.41,46.67-6.86,7.75-.72,15.48-1.38,23.13-2.24,3.84-.43,7.61-.92,11.45-1.46l11.54-1.65,46.16-6.61,46.16-6.61c3.83-.56,7.74-1.06,11.43-1.74l2.8-.48c.94-.15,1.87-.32,2.79-.55l5.55-1.26a184.14,184.14,0,0,0,21.78-6.9l2.68-1,2.65-1.1c1.76-.74,3.54-1.45,5.29-2.23,3.49-1.59,7-3.13,10.45-4.85,6.93-3.33,13.75-6.94,20.55-10.63,13.59-7.39,27.08-15.18,41-22.38a3.61,3.61,0,0,1,3.21,0c109.85,53.24,220.28,105.29,330.87,157h0a3.23,3.23,0,0,1,.42,5.62l-69.21,45.82h0l-.32.19-61.91,30.84.76-.54L2710.53,352.52l-3.7-4.22,120.8-94.66h0a2.69,2.69,0,0,1,.37-.24l55.71-29.53,7-3.69c1.16-.62,2.33-1.22,3.47-1.86l3.4-2,13.59-8,27.19-16,27.19-16c1.11-.7,2.32-1.25,3.48-1.86s2.36-1.19,3.51-1.8c2.31-1.22,4.63-2.43,6.93-3.69,4.61-2.48,9.2-5,13.79-7.6,9.19-5.11,18.38-10.27,27.82-15a233,233,0,0,1,29.17-12.68,162.92,162.92,0,0,1,31.07-7.18c10.5-1.47,21-2.3,31.54-3,21-1.45,42-2.39,62.43-6.79q30.87-6.15,61.16-14.86l3.78-1.1c1.26-.37,2.53-.73,3.73-1.14,2.44-.77,4.86-1.74,7.27-2.72,4.82-2,9.6-4.16,14.42-6.28s9.68-4.22,14.67-6.06a71.15,71.15,0,0,1,15.56-4.14,15.47,15.47,0,0,1,2.06-.16c.69,0,1.39-.08,2.08-.06l2.09.16c.7,0,1.36.21,2,.31,1.37.19,2.66.6,4,.91s2.59.78,3.84,1.24a139.63,139.63,0,0,1,14.6,6.4c4.74,2.34,9.38,4.81,14.07,7.1,2.36,1.15,4.67,2.19,7.13,3.14l7.32,2.9c19.56,7.66,39.37,14.75,59,22.42,9.8,3.83,19.56,7.81,29.2,12.08s19.17,8.8,28.41,13.9c18.49,10.19,35.88,22.17,52.94,34.47l51,37.12q25.4,18.74,50.09,38.39t49,39.7c8.14,6.66,16.14,13.48,24.45,19.93S3715.9,333.06,3724,339.75Z"/></g></g></svg>