<svg xmlns="http://www.w3.org/2000/svg" viewBox="0 0 3849.91 641.36"><defs><style>.cls-1{fill:#fff;}.cls-2{fill:none;stroke:#fff;stroke-miterlimit:10;}</style></defs><title>white</title><g id="Layer_2" data-name="Layer 2"><g id="Layer_1-2" data-name="Layer 1"><path class="cls-1" d="M225.86,330.66v45.48H89.64v91h115v45.69h-115V638H32V330.66Z"/><path class="cls-1" d="M509.58,638h-44.2q-7.44,0-12.22-3.72a21.1,21.1,0,0,1-6.91-9.24l-23-62.69H296L273,625a20.12,20.12,0,0,1-6.69,8.93,18.81,18.81,0,0,1-12.22,4H209.71l120.71-307.3h58.44Zm-198.92-116h98L371.23,419.7q-2.55-6.8-5.63-16t-6.06-20.08q-3,10.84-5.84,20.19t-5.63,16.36Z"/><path class="cls-1" d="M705.94,386.55a15.79,15.79,0,0,1-5.42,6.59,13.63,13.63,0,0,1-7.33,1.91q-4.25,0-9.56-3.29t-12.54-7.33a102.84,102.84,0,0,0-16.9-7.33,71.06,71.06,0,0,0-22.85-3.29,67.14,67.14,0,0,0-20.72,2.87,43.85,43.85,0,0,0-14.88,8,31.84,31.84,0,0,0-9,12.22,40.09,40.09,0,0,0-3,15.62q0,10.84,6.06,18.06a50.54,50.54,0,0,0,16,12.33A148.63,148.63,0,0,0,628.58,452q12.75,4,26,8.61a251.33,251.33,0,0,1,26,10.63,90.25,90.25,0,0,1,22.74,15.3,69.36,69.36,0,0,1,16,22.63q6.06,13.39,6.06,32.52a106,106,0,0,1-7.12,39,90,90,0,0,1-20.83,31.67,98,98,0,0,1-33.47,21.25q-19.76,7.75-45.27,7.76a146,146,0,0,1-28.9-2.87,152,152,0,0,1-27.31-8.18,142.23,142.23,0,0,1-24.44-12.75A120.13,120.13,0,0,1,517.86,601l16.58-27.41a21.16,21.16,0,0,1,5.63-5,13.76,13.76,0,0,1,7.33-2q5.31,0,11.48,4.36t14.56,9.67a111.43,111.43,0,0,0,19.76,9.67q11.37,4.36,27.31,4.36,24.44,0,37.83-11.58t13.39-33.26q0-12.11-6.06-19.76a48.93,48.93,0,0,0-16-12.86,120.07,120.07,0,0,0-22.74-8.82q-12.75-3.61-25.93-7.86A223.08,223.08,0,0,1,575,490.26a83.93,83.93,0,0,1-22.74-15.51,70.57,70.57,0,0,1-16-23.91q-6.06-14.35-6.06-35.38a84.58,84.58,0,0,1,26.25-61A96.55,96.55,0,0,1,588,334.7q18.7-7.44,42.72-7.44,27.2,0,50.15,8.5t39.1,23.8Z"/><path class="cls-1" d="M985.82,330.66v47H893.38V638H836.21V377.62H743.34v-47Z"/><path class="cls-1" d="M974.13,487.71h110.08v43.78H974.13Z"/><path class="cls-1" d="M1195.57,529.79V638H1138.4V330.66h100.1q30.81,0,53.34,7.23T1329,358.07a79.09,79.09,0,0,1,21.68,31,115.57,115.57,0,0,1-.43,80.44,84.92,84.92,0,0,1-22.31,32q-14.88,13.39-37.19,20.83t-52.28,7.44Zm0-44.63h42.93q15.72,0,27.41-3.93A50.93,50.93,0,0,0,1285.25,470a46.18,46.18,0,0,0,11.48-17.85,68.32,68.32,0,0,0,3.83-23.48,62,62,0,0,0-3.83-22.31,44.12,44.12,0,0,0-11.48-17,51.09,51.09,0,0,0-19.34-10.73q-11.69-3.72-27.41-3.72h-42.93Z"/><path class="cls-1" d="M1639.31,638h-44.2q-7.44,0-12.22-3.72A21.1,21.1,0,0,1,1576,625l-23-62.69h-127.3l-23,62.69a20.12,20.12,0,0,1-6.69,8.93,18.81,18.81,0,0,1-12.22,4h-44.42l120.71-307.3h58.44Zm-198.92-116h98L1501,419.7q-2.55-6.8-5.63-16t-6.06-20.08q-3,10.84-5.84,20.19t-5.63,16.36Z"/><path class="cls-1" d="M1871.37,565.49a10.73,10.73,0,0,1,8.08,3.61L1902,593.54A123.72,123.72,0,0,1,1856,629q-27.31,12.33-65.56,12.33-34.22,0-61.52-11.69a135.51,135.51,0,0,1-46.65-32.52q-19.34-20.82-29.65-49.73t-10.31-63.12q0-34.64,11.48-63.44a143.26,143.26,0,0,1,82.14-82q29-11.58,64.07-11.58,34.21,0,59.82,10.94a139.92,139.92,0,0,1,43.88,29l-19.13,26.56a17.4,17.4,0,0,1-4.36,4.46,12.36,12.36,0,0,1-7.33,1.91q-4.89,0-10-3.83a123.82,123.82,0,0,0-13-8.29,105.78,105.78,0,0,0-19.87-8.29q-12-3.83-30.5-3.83a103,103,0,0,0-39.85,7.54A88.58,88.58,0,0,0,1728.45,405a99.24,99.24,0,0,0-20.4,34.11q-7.33,20.08-7.33,45.16,0,25.93,7.33,46.12t19.87,34a84.8,84.8,0,0,0,29.54,21.15A91.3,91.3,0,0,0,1794,592.9a159.26,159.26,0,0,0,21.15-1.27,89.7,89.7,0,0,0,17.43-4,77.23,77.23,0,0,0,15.09-7.12,94.21,94.21,0,0,0,14.13-10.73,20.08,20.08,0,0,1,4.46-3.08A11.26,11.26,0,0,1,1871.37,565.49Z"/><path class="cls-1" d="M2004.19,459.44h13.39a34.78,34.78,0,0,0,13.39-2.23,22.65,22.65,0,0,0,9.14-7.12l84.79-107.32q5.31-6.8,11.16-9.46t14.77-2.66h49.3l-103.5,127.72a93.58,93.58,0,0,1-9.35,10,42.65,42.65,0,0,1-9.56,6.59,42.28,42.28,0,0,1,12.64,7.23,67,67,0,0,1,10.94,11.9L2208,638h-50.58q-10.2,0-15.19-2.87a23.76,23.76,0,0,1-8.39-8.39l-86.92-113.48a25.81,25.81,0,0,0-9.56-8q-5.31-2.44-15.09-2.44h-18.06V638H1947V330.44h57.17Z"/><path class="cls-1" d="M2435.6,330.66v45.48H2299.37v85.22H2406.7v44H2299.37v86.92H2435.6V638H2241.78V330.66Z"/><path class="cls-1" d="M2544.19,517.88V638H2487V330.66h93.72q31.45,0,53.87,6.48t36.77,18.17a70.16,70.16,0,0,1,21,27.95,97.89,97.89,0,0,1,2.13,65.14,84.89,84.89,0,0,1-13.18,25.08,88.76,88.76,0,0,1-21.25,19.76,111.41,111.41,0,0,1-28.8,13.6,56.67,56.67,0,0,1,18.7,17.64L2727,638h-51.43a25.08,25.08,0,0,1-12.65-3,25.79,25.79,0,0,1-8.82-8.5l-64.6-98.4a22.74,22.74,0,0,0-8-7.86q-4.36-2.34-12.86-2.34Zm0-41h35.7q16.15,0,28.16-4a54.41,54.41,0,0,0,19.76-11.16,44.8,44.8,0,0,0,11.58-16.9,58.4,58.4,0,0,0,3.83-21.46q0-23.38-15.41-35.92t-47.07-12.54h-36.55Z"/><path class="cls-1" d="M2748,609.05a32.67,32.67,0,0,1,2.44-12.54,30,30,0,0,1,6.8-10.2,33.46,33.46,0,0,1,10.31-6.8A32,32,0,0,1,2780.3,577a31.51,31.51,0,0,1,12.54,2.55,31.26,31.26,0,0,1,17,17,32.37,32.37,0,0,1,0,25.18,32.47,32.47,0,0,1-6.8,10.09,30.74,30.74,0,0,1-10.2,6.69,32.74,32.74,0,0,1-12.54,2.44,33.26,33.26,0,0,1-12.75-2.44,31.88,31.88,0,0,1-10.31-6.69,30.13,30.13,0,0,1-6.8-10.09A32.4,32.4,0,0,1,2748,609.05Z"/><path class="cls-1" d="M3059.33,565.49a10.73,10.73,0,0,1,8.08,3.61l22.53,24.44a123.72,123.72,0,0,1-46,35.49q-27.31,12.33-65.56,12.33-34.22,0-61.52-11.69a135.52,135.52,0,0,1-46.65-32.52q-19.34-20.82-29.65-49.73t-10.31-63.12q0-34.64,11.48-63.44a143.25,143.25,0,0,1,82.14-82q29-11.58,64.07-11.58,34.21,0,59.82,10.94a139.93,139.93,0,0,1,43.88,29l-19.13,26.56a17.41,17.41,0,0,1-4.36,4.46,12.36,12.36,0,0,1-7.33,1.91q-4.89,0-10-3.83a123.83,123.83,0,0,0-13-8.29,105.77,105.77,0,0,0-19.87-8.29q-12-3.83-30.5-3.83a103,103,0,0,0-39.85,7.54A88.58,88.58,0,0,0,2916.42,405a99.24,99.24,0,0,0-20.4,34.11q-7.33,20.08-7.33,45.16,0,25.93,7.33,46.12t19.87,34a84.8,84.8,0,0,0,29.54,21.15A91.3,91.3,0,0,0,2982,592.9a159.26,159.26,0,0,0,21.15-1.27,89.71,89.71,0,0,0,17.43-4,77.26,77.26,0,0,0,15.09-7.12,94.28,94.28,0,0,0,14.13-10.73,20.09,20.09,0,0,1,4.46-3.08A11.26,11.26,0,0,1,3059.33,565.49Z"/><path class="cls-1" d="M3427.83,484.31q0,33.79-11.26,62.59a148.29,148.29,0,0,1-31.67,49.83,143.38,143.38,0,0,1-49.09,32.83q-28.69,11.79-63.54,11.79t-63.65-11.79a144.24,144.24,0,0,1-49.3-32.83,147.36,147.36,0,0,1-31.77-49.83q-11.27-28.79-11.26-62.59t11.26-62.59a147.4,147.4,0,0,1,31.77-49.84,144.25,144.25,0,0,1,49.3-32.83q28.79-11.79,63.65-11.79t63.54,11.9A145.49,145.49,0,0,1,3384.9,372a147.18,147.18,0,0,1,31.67,49.73Q3427.83,450.52,3427.83,484.31Zm-58.65,0q0-25.29-6.69-45.37t-19.23-34.11a82.86,82.86,0,0,0-30.5-21.46q-18-7.44-40.48-7.44t-40.59,7.44A83.59,83.59,0,0,0,3201,404.83q-12.65,14-19.45,34.11t-6.8,45.37q0,25.29,6.8,45.37t19.45,34A84.12,84.12,0,0,0,3231.68,585q18.06,7.44,40.59,7.44t40.48-7.44a83.38,83.38,0,0,0,30.5-21.36q12.54-13.92,19.23-34T3369.18,484.31Z"/><path class="cls-1" d="M3633.87,524.58q3.08,7.33,6.06,14.77,3-7.65,6.16-15.09t6.8-14.24l91-170.23a23.54,23.54,0,0,1,3.51-5.1,10.84,10.84,0,0,1,4-2.76,17.92,17.92,0,0,1,5-1.06q2.76-.21,6.59-.21h43.14V638h-50.37V439.47q0-5.52.32-12.11t1-13.39l-92.87,174.26a24.47,24.47,0,0,1-8.29,9.24,21.43,21.43,0,0,1-11.9,3.29h-7.86a21.42,21.42,0,0,1-11.9-3.29,24.47,24.47,0,0,1-8.29-9.24l-94.15-174.9q.85,7,1.17,13.71t.32,12.43V638h-50.37V330.66H3516q3.83,0,6.59.21a18,18,0,0,1,5,1.06,11.83,11.83,0,0,1,4.14,2.76,21.5,21.5,0,0,1,3.61,5.1l91.81,170.65Q3630.79,517.25,3633.87,524.58Z"/><path class="cls-2" d="M3756.84,626V438.64q0-5.53.32-12.12t1-13.39l-92.91,174.34a24.48,24.48,0,0,1-8.29,9.25A21.44,21.44,0,0,1,3645,600h-7.87a21.43,21.43,0,0,1-11.91-3.3,24.48,24.48,0,0,1-8.29-9.25l-94.19-175q.85,7,1.17,13.71t.32,12.44V626Z"/><path class="cls-2" d="M2544.77,626h110.13l-.21-.3-64.63-98.44a22.75,22.75,0,0,0-8-7.87q-4.36-2.34-12.86-2.34h-24.45Z"/><path class="cls-2" d="M2037.7,504.44q-5.32-2.44-15.1-2.44h-18.07V626h129.75l-.06-.09-87-113.53A25.82,25.82,0,0,0,2037.7,504.44Z"/><path class="cls-2" d="M2608.65,472a54.43,54.43,0,0,0,19.77-11.16A44.82,44.82,0,0,0,2640,444a58.43,58.43,0,0,0,3.83-21.47q0-23.39-15.41-35.93T2581.33,374h-36.57V476.06h35.72Q2596.64,476.06,2608.65,472Z"/><path class="cls-2" d="M3313.66,584.28a83.42,83.42,0,0,0,30.51-21.37q12.54-13.92,19.24-34t6.7-45.39q0-25.3-6.7-45.39T3344.17,404a82.9,82.9,0,0,0-30.51-21.47q-18-7.44-40.5-7.44t-40.61,7.44A83.63,83.63,0,0,0,3201.83,404q-12.65,14-19.45,34.12t-6.8,45.39q0,25.3,6.8,45.39t19.45,34a84.16,84.16,0,0,0,30.72,21.37q18.07,7.44,40.61,7.44T3313.66,584.28Z"/><path class="cls-2" d="M225.44,329.79v45.5H89.16v91h115V512h-115V626H213.68L330,329.79h58.47L504.88,626h49.46a139.66,139.66,0,0,1-16.47-9.23,120.13,120.13,0,0,1-20.3-16.58l16.58-27.43a21.15,21.15,0,0,1,5.63-5,13.76,13.76,0,0,1,7.33-2q5.31,0,11.48,4.36t14.56,9.67a111.46,111.46,0,0,0,19.77,9.67q11.37,4.36,27.32,4.36,24.45,0,37.84-11.59T671.49,549q0-12.12-6.06-19.77a49,49,0,0,0-16.05-12.86,120.11,120.11,0,0,0-22.75-8.82q-12.76-3.61-25.94-7.87a223.11,223.11,0,0,1-25.94-10.21A84,84,0,0,1,552,473.93,70.59,70.59,0,0,1,536,450q-6.06-14.35-6.06-35.4a84.61,84.61,0,0,1,26.26-61,96.6,96.6,0,0,1,31.57-19.77q18.71-7.44,42.73-7.44,27.21,0,50.18,8.5t39.12,23.81l-14,27a15.8,15.8,0,0,1-5.42,6.59,13.64,13.64,0,0,1-7.33,1.91q-4.26,0-9.57-3.3t-12.54-7.33a102.84,102.84,0,0,0-16.9-7.33,71.07,71.07,0,0,0-22.86-3.3,67.17,67.17,0,0,0-20.73,2.87,43.88,43.88,0,0,0-14.88,8,31.86,31.86,0,0,0-9,12.23,40.1,40.1,0,0,0-3,15.63q0,10.84,6.06,18.07A50.56,50.56,0,0,0,605.58,442a148.72,148.72,0,0,0,22.75,9.14q12.76,4,26,8.61a251.55,251.55,0,0,1,26,10.63,90.3,90.3,0,0,1,22.75,15.31,69.39,69.39,0,0,1,16.05,22.64q6.06,13.39,6.06,32.53a106,106,0,0,1-7.12,39,90,90,0,0,1-20.84,31.68A92.77,92.77,0,0,1,678.14,626H836V376.77H743.14v-47H985.73v47H893.24V626h245.13V329.79h100.14q30.83,0,53.36,7.23t37.21,20.2a79.14,79.14,0,0,1,21.69,31,115.62,115.62,0,0,1-.43,80.47,85,85,0,0,1-22.32,32q-14.88,13.39-37.21,20.84t-52.3,7.44h-42.95v97h148.33l116.37-296.25h58.47L1635.1,626h87.67a134.28,134.28,0,0,1-40.34-29.64q-19.35-20.83-29.66-49.75t-10.31-63.14q0-34.65,11.48-63.46A143.32,143.32,0,0,1,1736.12,338q29-11.59,64.1-11.59,34.23,0,59.85,10.95a140,140,0,0,1,43.9,29l-19.13,26.58a17.4,17.4,0,0,1-4.36,4.46,12.36,12.36,0,0,1-7.33,1.91q-4.89,0-10-3.83a123.9,123.9,0,0,0-13-8.29,105.82,105.82,0,0,0-19.88-8.29q-12-3.83-30.51-3.83a103,103,0,0,0-39.86,7.55,88.61,88.61,0,0,0-31.25,21.58,99.28,99.28,0,0,0-20.41,34.12q-7.34,20.09-7.34,45.18,0,25.94,7.34,46.14t19.88,34a84.82,84.82,0,0,0,29.55,21.15,91.34,91.34,0,0,0,36.57,7.34,159.3,159.3,0,0,0,21.15-1.28,89.76,89.76,0,0,0,17.43-4,77.28,77.28,0,0,0,15.1-7.12A94.22,94.22,0,0,0,1862.09,569a20.1,20.1,0,0,1,4.46-3.08,11.27,11.27,0,0,1,5.1-1.17,10.74,10.74,0,0,1,8.08,3.61l22.54,24.45A123.46,123.46,0,0,1,1860.95,626h86.39V329.57h57.19V458.63h13.39a34.79,34.79,0,0,0,13.39-2.23,22.66,22.66,0,0,0,9.14-7.12l84.83-107.37q5.31-6.8,11.16-9.46t14.78-2.66h49.33L2097,457.56a93.53,93.53,0,0,1-9.35,10,42.66,42.66,0,0,1-9.57,6.59,42.31,42.31,0,0,1,12.65,7.23,67,67,0,0,1,10.95,11.91L2200.13,626h42.09V329.79h193.9v45.5H2299.84v85.26h107.37v44H2299.84v87h136.28V626h51.45V329.79h93.76q31.46,0,53.9,6.48T2672,354.45a70.18,70.18,0,0,1,21,28,97.93,97.93,0,0,1,2.13,65.16A84.93,84.93,0,0,1,2682,472.66a88.79,88.79,0,0,1-21.26,19.77A111.48,111.48,0,0,1,2631.93,506a56.69,56.69,0,0,1,18.71,17.65L2720,626h33.76a31.42,31.42,0,0,1-2.69-5.09,33.67,33.67,0,0,1,0-25.19,30,30,0,0,1,6.8-10.21,33.47,33.47,0,0,1,10.31-6.8A32,32,0,0,1,2781,576.2a31.53,31.53,0,0,1,12.54,2.55,31.27,31.27,0,0,1,17,17,32.37,32.37,0,0,1,0,25.19,34.26,34.26,0,0,1-2.76,5.09h103.48a134.28,134.28,0,0,1-40.34-29.64q-19.35-20.83-29.66-49.75t-10.31-63.14q0-34.65,11.48-63.46A143.32,143.32,0,0,1,2924.59,338q29-11.59,64.1-11.59,34.23,0,59.85,10.95a140,140,0,0,1,43.9,29l-19.13,26.58a17.4,17.4,0,0,1-4.36,4.46,12.36,12.36,0,0,1-7.33,1.91q-4.89,0-10-3.83a123.93,123.93,0,0,0-13-8.29,105.8,105.8,0,0,0-19.88-8.29q-12-3.83-30.51-3.83a103,103,0,0,0-39.86,7.55,88.61,88.61,0,0,0-31.25,21.58,99.28,99.28,0,0,0-20.41,34.12q-7.34,20.09-7.34,45.18,0,25.94,7.34,46.14t19.88,34a84.82,84.82,0,0,0,29.55,21.15,91.33,91.33,0,0,0,36.57,7.34,159.3,159.3,0,0,0,21.15-1.28,89.77,89.77,0,0,0,17.43-4,77.27,77.27,0,0,0,15.1-7.12A94.22,94.22,0,0,0,3050.56,569a20.09,20.09,0,0,1,4.46-3.08,11.27,11.27,0,0,1,5.1-1.17,10.74,10.74,0,0,1,8.08,3.61l22.54,24.45A123.45,123.45,0,0,1,3049.42,626H3203.1A142.68,142.68,0,0,1,3160.16,596a147.43,147.43,0,0,1-31.78-49.86q-11.27-28.81-11.27-62.61t11.27-62.61A147.46,147.46,0,0,1,3160.16,371a144.31,144.31,0,0,1,49.33-32.85q28.81-11.8,63.68-11.8t63.57,11.91a145.56,145.56,0,0,1,49.11,32.85,147.22,147.22,0,0,1,31.68,49.75q11.27,28.81,11.27,62.61t-11.27,62.61A148.35,148.35,0,0,1,3385.84,596,141.85,141.85,0,0,1,3343.08,626h130.78V329.79H3517q3.83,0,6.59.21a18,18,0,0,1,5,1.06,11.83,11.83,0,0,1,4.15,2.76,21.52,21.52,0,0,1,3.61,5.1l91.85,170.72q3.61,6.81,6.7,14.14t6.06,14.78q3-7.65,6.17-15.1t6.8-14.24l91-170.3a23.52,23.52,0,0,1,3.51-5.1,12.08,12.08,0,0,1,1.19-1.09q-14.48-12-29-23.9c-42.31-34.8-85-69.2-129.67-101-31.38-22.34-64-48.11-98.93-65.25-36.26-17.8-76.68-30.59-114.33-45.71-12-4.81-32.65-18.21-45.9-18.44-15.5-.26-41.25,15.31-56.74,20a751.65,751.65,0,0,1-73.57,18.07c-36.6,7-81.15,3.69-115.67,15-29.61,9.68-58.41,29.2-86.16,43.07l-72.59,43-65.84,35.06-120.65,94.86L2857.08,234.1l61.87-30.92,69.15-45.92Q2822,79.91,2657,.56c-38.7,20-75.68,46.05-120.36,52.49L2423.6,69.34c-27.53,4-60.38,4.07-86.84,12.4L2299.7,93.4c-6.18,4.17-12.24,9.17-18.84,12.7-14.36,7.68-15.82,5-31-3.55l-83.72-46.83c-4.6-2.58-9.47-5.23-14.82-5.37-4.3-.12-8.44,1.41-12.44,2.91L1991.3,108.72c-35,13.14-73.28,32.34-110.56,38.11l-67.43,10.43a994.6,994.6,0,0,1-120.07,54.67c39.09,27.57,75.92,50.74,119.69,70.46l76,34.22-135.1-49.05-86.6-55.49c-30.74-18-64.19-34-92.91-54.64-31.55-22.66-58.38-52.62-96.17-66.43-32.41-11.84-58.48-25.11-88-42.55-15.91,3.93-34.68,6.1-49.18,13.41a87.16,87.16,0,0,0-12.22,8c-24,17.68-44.45,33.95-73.5,43.24-25.43,8.13-52,12.64-78,18.49-24.22,5.44-49.37,10.07-71.55,21.2s-23.9,18.29-45,2.19a543,543,0,0,0-80-50.46,17.65,17.65,0,0,0-5.55-2.1c-2.64-.37-5.28.43-7.82,1.21C898.21,125,828,142,755.9,151.47c-17.66,2.32-33.52,5.33-49.07,13.78-9.57,5.2-18.72,14.81-29.27,18.05-31.73,9.76-63.07,18.81-92.37,34.3-7,3.7-33.86,27.9-48.43,25.83,0,0,86,45.19,86,45.19l73.62,28.73-75.51-19.44c-46.53-22.75-91.94-40.47-127-78.26-8.57-9.25-98.36-99.37-106.44-93.48L312,181.26c-49.76,16.07-102.36,29-149.31,51.53-10,4.79-20,10.25-26.7,18.73-12.5,15.92-14.9,35.53-28.95,51.11-8.74,9.69-18.56,18.37-28.27,27.15ZM1084.16,486.9v43.8H974V486.9Z"/><path class="cls-2" d="M1402.86,624.25a16.22,16.22,0,0,1-.76,1.79h174.83c-.29-.58-.56-1.17-.79-1.79l-23-62.72H1425.82Z"/><path class="cls-2" d="M1495.45,402.82q-3.08-9.25-6.06-20.09-3,10.84-5.85,20.2t-5.63,16.37l-37.42,101.84h98l-37.42-102.26Q1498.53,412.07,1495.45,402.82Z"/><path class="cls-2" d="M31.54,378.29.5,411.78.53,596A30.08,30.08,0,0,0,30.61,626h.94Z"/><path class="cls-2" d="M3846.07,410.6c-6.71-8.85-20.55-16-29.3-23q-4.78-3.83-9.54-7.68V626h10.3a30.68,30.68,0,0,0,30.68-30.68V451.12C3848.21,441.12,3852,418.43,3846.07,410.6Z"/><path class="cls-2" d="M365.23,402.82q-3.08-9.25-6.06-20.09-3,10.84-5.85,20.2t-5.63,16.37L310.27,521.13h98L370.87,418.87Q368.32,412.07,365.23,402.82Z"/><path class="cls-2" d="M1265.94,480.42a51,51,0,0,0,19.35-11.27,46.2,46.2,0,0,0,11.48-17.86,68.35,68.35,0,0,0,3.83-23.49,62,62,0,0,0-3.83-22.32,44.14,44.14,0,0,0-11.48-17,51.1,51.1,0,0,0-19.35-10.74q-11.69-3.72-27.43-3.72h-42.95V484.35h42.95Q1254.24,484.35,1265.94,480.42Z"/><path class="cls-2" d="M272.64,624.25a16.22,16.22,0,0,1-.76,1.79H446.71c-.29-.58-.56-1.17-.79-1.79l-23-62.72H295.6Z"/></g></g></svg>